<?xml version="1.0" standalone="no"?>
<!DOCTYPE svg PUBLIC "-//W3C//DTD SVG 20010904//EN"
        "http://www.w3.org/TR/2001/REC-SVG-20010904/DTD/svg10.dtd">
<svg version="1.0" xmlns="http://www.w3.org/2000/svg"
     width="512.000000pt" height="512.000000pt" viewBox="0 0 512.000000 512.000000"
     preserveAspectRatio="xMidYMid meet">
    <metadata>
        Created by potrace 1.14, written by Peter Selinger 2001-2017
    </metadata>
    <g transform="translate(0.000000,512.000000) scale(0.100000,-0.100000)"
       fill="#000000" stroke="none">
        <path d="M3404 4526 c-16 -12 -19 -29 -22 -106 -2 -85 -1 -92 22 -115 16 -16
31 -23 43 -19 35 13 43 36 43 130 0 85 -2 94 -22 108 -28 20 -39 20 -64 2z"/>
        <path d="M1806 4454 c-9 -8 -16 -22 -16 -29 0 -7 7 -21 16 -29 21 -22 54 -4
54 29 0 33 -33 51 -54 29z"/>
        <path d="M3010 4432 c0 -6 -10 -12 -22 -14 -51 -7 -23 -76 76 -190 26 -31 76
-39 76 -13 0 8 4 15 9 15 17 0 5 56 -16 76 -13 12 -23 25 -23 30 0 10 -56 74
-82 93 -11 8 -18 9 -18 3z"/>
        <path d="M3830 4417 c-24 -20 -85 -100 -101 -132 -24 -51 8 -93 58 -74 29 11
123 138 123 168 0 41 -48 64 -80 38z"/>
        <path d="M2124 4322 l-30 -36 -36 21 -36 21 -22 -20 -21 -20 21 -21 c22 -19
23 -19 52 -2 25 15 34 15 54 4 13 -7 24 -18 24 -24 0 -7 6 -18 13 -24 11 -8
17 -5 26 12 7 13 24 30 39 39 l26 16 -25 12 c-14 6 -32 22 -40 35 l-14 24 -31
-37z"/>
        <path d="M1478 4283 c-10 -2 -18 -10 -18 -16 0 -7 -3 -21 -6 -32 -6 -25 29
-66 54 -62 57 10 77 57 41 95 -19 21 -35 25 -71 15z"/>
        <path d="M2490 4233 c-50 -15 -120 -47 -120 -53 0 -5 -8 -11 -18 -14 -10 -3
-63 -50 -118 -104 -109 -106 -331 -318 -385 -368 -19 -18 -44 -44 -56 -59 -13
-15 -23 -23 -23 -18 0 4 -5 1 -10 -7 -12 -18 -11 -24 -14 115 -2 55 -8 112
-13 126 -15 35 -65 76 -105 85 -43 9 -282 9 -331 0 -41 -8 -92 -51 -108 -93
-7 -18 -11 -151 -11 -383 l0 -355 -52 -48 c-28 -27 -112 -107 -186 -178 -74
-70 -169 -161 -211 -201 -73 -70 -115 -128 -102 -142 4 -3 1 -6 -5 -6 -7 0 -9
-19 -7 -52 7 -90 10 -99 54 -148 51 -57 94 -72 211 -75 47 -1 94 -4 106 -8 46
-16 47 -27 49 -554 1 -335 5 -507 13 -524 6 -15 8 -30 5 -33 -4 -3 -1 -6 5 -6
7 0 12 -6 12 -13 0 -35 67 -136 129 -193 36 -34 148 -90 195 -99 22 -3 551 -6
1176 -6 1230 1 1158 -2 1270 54 46 23 170 138 170 158 0 6 9 23 20 39 11 15
21 36 23 46 1 11 5 24 8 29 19 32 23 115 24 546 1 261 4 479 6 485 3 5 5 16 4
24 -1 20 33 50 59 51 12 1 54 1 94 2 39 0 72 4 72 9 0 5 5 6 11 2 12 -7 89 24
89 37 0 4 9 11 20 14 11 4 18 11 15 16 -4 5 -2 9 2 9 21 0 49 86 46 140 -4 76
-5 80 -15 80 -5 0 -7 4 -4 9 7 11 -55 76 -189 197 -118 107 -205 187 -251 229
-17 17 -69 64 -115 105 -45 41 -103 96 -130 123 -26 26 -52 47 -58 47 -6 0
-11 7 -11 15 0 9 -7 18 -17 22 -16 6 -55 40 -167 146 -33 32 -89 83 -123 113
-34 30 -88 80 -120 112 -66 64 -252 236 -328 303 -27 24 -78 72 -113 107 -34
34 -67 62 -72 62 -4 0 -10 4 -12 8 -5 12 -74 52 -110 64 -36 11 -153 19 -178
11z"/>
        <path d="M3449 4186 c-2 -2 -29 -6 -59 -10 -30 -3 -70 -10 -87 -15 -18 -5 -33
-7 -33 -3 0 4 -4 3 -8 -3 -7 -10 -36 -28 -85 -53 -16 -8 -31 -20 -34 -28 -3
-8 -9 -12 -13 -9 -4 3 -11 -2 -14 -10 -7 -20 51 -85 76 -85 10 0 18 5 18 10 0
6 5 10 11 10 6 0 30 14 54 30 24 17 48 30 52 29 4 -1 10 0 13 1 34 13 142 21
156 12 40 -25 14 -85 -35 -81 -14 1 -33 -1 -42 -5 -9 -4 -27 -8 -40 -10 -29
-3 -70 -20 -103 -42 l-25 -16 68 -66 c37 -37 88 -84 112 -105 24 -22 91 -84
149 -140 58 -55 140 -134 183 -175 l78 -75 25 24 c54 50 96 173 97 284 0 45
-10 140 -19 170 -11 39 -56 125 -65 125 -5 0 -9 6 -9 14 0 8 -15 27 -34 44
-19 17 -32 33 -29 36 4 3 1 6 -5 6 -11 0 -36 18 -68 48 -8 7 -14 10 -14 5 0
-4 -5 -1 -10 9 -6 9 -38 25 -73 36 -64 20 -68 21 -128 26 -20 2 -41 6 -46 9
-6 4 -12 5 -14 3z"/>
        <path d="M4068 4103 c-64 -46 -78 -61 -78 -84 0 -14 7 -32 15 -39 21 -18 66
-16 80 4 7 9 16 16 21 16 5 0 23 11 39 25 81 66 91 87 57 118 -29 27 -52 20
-134 -40z"/>
        <path d="M1812 4041 c-16 -9 -24 -51 -11 -51 6 0 7 -4 4 -10 -3 -6 5 -10 19
-10 31 0 47 27 32 55 -13 22 -26 27 -44 16z"/>
        <path d="M4099 3717 c-24 -18 -28 -52 -10 -76 12 -16 29 -23 64 -25 26 -1 50
1 53 6 3 5 12 4 19 -2 10 -8 14 -7 18 2 3 8 6 8 6 2 1 -16 81 0 92 17 14 23
10 48 -11 69 -18 18 -33 20 -118 19 -56 0 -104 -6 -113 -12z"/>
        <path d="M1001 3444 c-6 -14 -11 -31 -11 -39 0 -8 -18 -25 -40 -37 -22 -13
-40 -26 -40 -29 0 -6 30 -18 52 -23 15 -2 43 -51 40 -68 -2 -13 3 -18 18 -18
12 0 19 4 15 9 -3 5 -1 12 5 16 6 4 8 10 5 15 -11 17 7 38 46 50 21 7 39 17
39 22 0 5 -17 16 -37 25 -39 16 -55 31 -47 45 3 4 1 8 -5 8 -5 0 -8 9 -6 19 5
29 -21 33 -34 5z"/>
        <path d="M4028 3383 c-9 -2 -22 -18 -29 -35 -12 -29 -11 -32 16 -54 15 -12 40
-28 54 -36 14 -7 31 -20 38 -28 7 -8 13 -11 13 -6 0 6 6 2 13 -7 19 -27 52
-28 74 -4 11 12 18 28 17 35 -1 6 -2 16 -3 22 -3 22 -168 119 -193 113z"/>
    </g>
</svg>
